<svg xmlns="http://www.w3.org/2000/svg" viewBox="0 0 24 24"><path d="M22.825.796A1.484 1.484 0 0 0 21.51 0H2.49c-.552 0-1.056.305-1.315.796a1.5 1.5 0 0 0 .09 1.551l7.646 11.18a.503.503 0 0 1 .089.285v8.689C9 23.328 9.673 24 10.5 24c.269 0 .534-.074.769-.215l3.005-1.803c.448-.27.726-.762.726-1.284v-6.886c0-.102.031-.2.09-.286l7.645-11.178a1.502 1.502 0 0 0 .09-1.552zm-12.048 11.12a.5.5 0 0 1-.693-.139l-6-9a.5.5 0 1 1 .832-.554l6 9a.5.5 0 0 1-.139.693z"/><path d="M19.242 11.68a1.5 1.5 0 0 1-.773-.215l-1.727-1.036a.5.5 0 1 1 .515-.857l1.727 1.036c.22.132.503.077.657-.129l1.794-2.392a.491.491 0 0 0 .09-.396.495.495 0 0 0-.233-.333l-1.549-.93a.5.5 0 1 1 .515-.857l1.549.93a1.502 1.502 0 0 1 .429 2.186l-1.794 2.392a1.498 1.498 0 0 1-1.2.601z"/></svg>