<svg xmlns="http://www.w3.org/2000/svg" viewBox="0 0 24 24"><path d="M23.281 14.63l-2.206-1.725a8.68 8.68 0 0 0 .052-.906c0-.329-.023-.64-.052-.906l2.208-1.726c.41-.324.522-.899.261-1.378L21.25 4.02a1.063 1.063 0 0 0-1.327-.477L17.32 4.588a8.924 8.924 0 0 0-1.563-.907L15.361.92a1.062 1.062 0 0 0-1.06-.92h-4.6a1.06 1.06 0 0 0-1.058.912l-.397 2.771a9.197 9.197 0 0 0-1.56.907l-2.61-1.048c-.489-.189-1.074.023-1.317.469L.462 7.985a1.075 1.075 0 0 0 .26 1.385l2.206 1.725c-.035.337-.052.63-.052.905s.017.568.052.906L.72 14.632c-.41.325-.521.9-.26 1.378l2.294 3.969c.245.447.777.679 1.327.477l2.603-1.045a9.006 9.006 0 0 0 1.562.907l.396 2.76c.065.526.52.922 1.06.922h4.6a1.06 1.06 0 0 0 1.059-.912l.397-2.77a9.244 9.244 0 0 0 1.56-.908l2.61 1.048a1.056 1.056 0 0 0 1.317-.468L23.549 16a1.08 1.08 0 0 0-.268-1.37zM12.001 16c-2.206 0-4-1.794-4-4s1.794-4 4-4 4 1.794 4 4-1.794 4-4 4z"/></svg>