<svg xmlns="http://www.w3.org/2000/svg" viewBox="0 0 24 24"><path d="M5.191 13.038a.501.501 0 0 0-.545.108L3 14.793l-1.646-1.646A.501.501 0 0 0 .5 13.5v10a.5.5 0 0 0 .5.5h4a.5.5 0 0 0 .5-.5v-10a.5.5 0 0 0-.309-.462zm4.163-3.892a.5.5 0 0 0-.707 0l-2 2a.5.5 0 0 0-.147.354v12a.5.5 0 0 0 .5.5h4a.5.5 0 0 0 .5-.5v-12a.504.504 0 0 0-.146-.354l-2-2zm6-2a.5.5 0 0 0-.707 0l-2 2a.5.5 0 0 0-.147.354v14a.5.5 0 0 0 .5.5h4a.5.5 0 0 0 .5-.5v-14a.504.504 0 0 0-.146-.354l-2-2zm7-2A.504.504 0 0 0 22 5h-1a.504.504 0 0 0-.354.146l-2 2a.504.504 0 0 0-.146.354v16a.5.5 0 0 0 .5.5h4a.5.5 0 0 0 .5-.5v-17a.504.504 0 0 0-.146-.354l-1-1z"/><path d="M23 0h-3a.5.5 0 0 0-.354.854L20.793 2 17 5.793l-1.646-1.646a.5.5 0 0 0-.707 0L11 7.793 9.354 6.146a.5.5 0 0 0-.707 0L3 11.793l-1.646-1.646a.5.5 0 0 0-.707.707l2 2a.498.498 0 0 0 .707 0L9 7.207l1.646 1.646a.5.5 0 0 0 .707 0L15 5.207l1.646 1.646a.5.5 0 0 0 .707 0L21.5 2.707l1.146 1.146A.5.5 0 0 0 23.5 3.5v-3A.5.5 0 0 0 23 0z"/></svg>